<svg width="25" height="30" viewBox="0 0 25 30" fill="none" xmlns="http://www.w3.org/2000/svg">
<path d="M21.6747 20.7692V13.0769C21.6747 8.35385 19.1517 4.4 14.7517 3.35385V2.30769C14.7517 1.03077 13.7209 0 12.444 0C11.167 0 10.1363 1.03077 10.1363 2.30769V3.35385C5.72089 4.4 3.2132 8.33846 3.2132 13.0769V20.7692L1.22858 22.7538C0.259349 23.7231 0.936272 25.3846 2.3055 25.3846H22.567C23.9363 25.3846 24.6286 23.7231 23.6594 22.7538L21.6747 20.7692Z" fill="#D7D7D7"/>
<path d="M12.4422 30C13.7913 30 14.9449 29.12 15.3573 27.9056C15.5349 27.3826 15.0714 26.9231 14.5191 26.9231H10.3652C9.81295 26.9231 9.34934 27.3825 9.52562 27.9059C9.9346 29.1201 11.0808 30 12.4422 30Z" fill="#AEAEAE"/>
</svg>
