<svg width="28" height="30" viewBox="0 0 28 30" fill="none" xmlns="http://www.w3.org/2000/svg">
<path fill-rule="evenodd" clip-rule="evenodd" d="M16.2964 29.8084C15.0869 30.0419 13.2589 30.0684 12.0124 29.8524C11.7054 29.7994 11.3864 29.5139 11.2994 29.2149L10.4909 26.4329C10.4039 26.1339 10.1149 25.7649 9.84542 25.6094L6.91594 23.9184C6.64644 23.7629 6.18344 23.7019 5.88294 23.7824L3.12346 24.5219C2.82296 24.6024 2.41596 24.4744 2.21547 24.2369C1.44447 23.3239 0.568477 21.803 0.16698 20.7125C0.0594803 20.4205 0.14698 20.0015 0.361978 19.7765L2.43696 17.613C2.65196 17.3885 2.82696 16.9535 2.82696 16.642V13.2595C2.82696 12.9485 2.64846 12.517 2.42846 12.297L0.359978 10.229C0.13998 10.009 0.0489804 9.59354 0.15648 9.30154C0.252479 9.04104 0.614477 8.26505 1.04947 7.51205C1.49397 6.74256 1.99647 6.02706 2.18647 5.80056C2.38596 5.56207 2.79346 5.42857 3.09596 5.50307L6.04794 6.22806C6.34994 6.30206 6.81444 6.23606 7.08393 6.08056L10.0129 4.38907C10.2824 4.23358 10.5669 3.86308 10.6474 3.56258L11.3934 0.778099C11.4739 0.477601 11.7884 0.191603 12.0954 0.139603C13.2229 -0.0503957 14.9594 -0.0488957 16.1169 0.159103C16.4229 0.214102 16.7369 0.5026 16.8174 0.803098L17.5569 3.56258C17.6374 3.86308 17.9219 4.23358 18.1909 4.38907L21.1203 6.08056C21.3898 6.23606 21.8528 6.29706 22.1533 6.21656L24.9128 5.47707C25.2133 5.39657 25.6203 5.52407 25.8208 5.76157C26.6248 6.71356 27.5188 8.28505 27.9263 9.42604C28.0308 9.71954 27.9373 10.136 27.7173 10.356L25.7758 12.297C25.5558 12.517 25.3773 12.9485 25.3773 13.2595V16.642C25.3773 16.9535 25.5558 17.3845 25.7758 17.6045L27.7463 19.575C27.9663 19.795 28.0608 20.212 27.9573 20.5055C27.8428 20.8305 27.4573 21.6715 26.9868 22.487C26.5423 23.2564 26.0398 23.9719 25.8498 24.1989C25.6498 24.4369 25.2433 24.5654 24.9428 24.4849L22.3213 23.7824C22.0203 23.7019 21.5578 23.7629 21.2883 23.9184L18.3589 25.6094C18.0894 25.7649 17.8054 26.1354 17.7249 26.4359L16.9959 29.1569C16.9154 29.4574 16.6019 29.7494 16.2964 29.8084ZM7.28843 14.9995C7.28843 11.2655 10.3194 8.23405 14.0534 8.23405C17.7869 8.23405 20.8183 11.2655 20.8183 14.9995C20.8183 18.733 17.7869 21.7645 14.0534 21.7645C10.3194 21.7645 7.28843 18.733 7.28843 14.9995Z" fill="#D7D7D7"/>
</svg>
